<svg fill="none" height="29" viewBox="0 0 115 29" width="115" xmlns="http://www.w3.org/2000/svg"><path d="M18.249 17.795v10.091H9.766v-10.09L0 0h9.719l4.447 8.527C15.66 5.763 17.143 2.682 18.543 0h9.307zm26.544 10.091l-7.954-13.02v13.02h-8.036V0h7.248l7.953 12.808V0h7.99v27.886zm27.391-4.951h-8.201l-1.647 4.94h-9.06L63.489 0h9.766l9.965 27.886h-9.436zm-4.071-12.761L65.97 16.56h4.283zm27.732 17.712H84.48V0h10.79c6.388 0 10.095 2.717 10.095 7.657 0 2.47-1.283 4.493-3.377 6.01 2.188 1.235 3.541 3.705 3.541 6.222-.011 5.151-3.635 7.997-9.683 7.997zm-1.2-21.382h-2.06v4.528h2.19c1.07 0 2.023-.87 2.023-2.387-.012-1.188-.788-2.14-2.153-2.14zM94.48 16.76h-1.894v4.658h1.777c1.776 0 2.718-.87 2.718-2.27 0-1.482-.742-2.388-2.6-2.388z" fill="#25384f"/><path d="M105.776 23.723c0-2.552 2.059-4.61 4.612-4.61S115 21.17 115 23.722s-2.059 4.61-4.612 4.61-4.612-2.058-4.612-4.61z" fill="#85c3e9"/></svg>